<svg width="335" height="259" viewBox="0 0 335 259" fill="none" xmlns="http://www.w3.org/2000/svg">
<path fill-rule="evenodd" clip-rule="evenodd" d="M329.551 108.032C329.986 109.322 329.837 109.44 328.905 110.749C328.434 111.409 327.585 112.432 327.003 113.199C327.263 113.97 328.745 116.123 329.108 116.635C329.594 117.313 331.69 119.329 330.853 119.935C330.841 119.986 324.583 120.621 323.987 118.882L320.043 126.258L319.903 126.279C319.704 124.025 319.505 121.771 319.307 119.518L311.933 116.941C311.995 115.879 313.172 115.547 314.103 115.055C315.261 114.442 316.338 113.621 317.494 112.991C318.081 112.67 317.982 110.318 318.096 109.365C318.238 108.121 318.328 106.873 318.449 105.629C318.715 102.923 322.72 108.779 322.875 109.128C323.342 110.168 324.926 109.255 325.943 108.961C327.092 108.632 328.389 108.569 329.547 108.031L329.551 108.032ZM317.054 117.715C317.035 117.778 317.019 117.843 317 117.906L319.261 118.706L319.267 118.1L317.689 117.818C317.683 117.799 317.687 117.777 317.687 117.756L317.055 117.718L317.054 117.715ZM319.374 112.156L319.505 111.809C319.368 110.004 319.23 108.195 319.089 106.383C318.838 106.796 318.365 111.954 318.662 112.239C319.036 112.353 319.115 112.156 319.374 112.156ZM319.764 106.109C319.531 107.477 320.506 111.848 319.902 112.908C319.297 113.967 314.745 115.824 314.517 116.498C315.332 116.759 316.178 116.909 317.032 116.946C318.608 117.05 318.047 117.248 319.61 116.868C319.906 118.897 320.204 120.925 320.502 122.952L320.647 122.903C321.705 120.893 322.596 117.699 324.311 116.83C324.91 117.546 328.574 118.978 329.465 118.789L329.557 118.685C328.291 117.221 327.026 115.758 325.761 114.297L325.567 114.237L328.391 109.655C328.397 109.613 328.402 109.572 328.407 109.528L323.383 111.038L319.766 106.105L319.764 106.109Z" fill="url(#paint0_linear_0_17652)"/>
<path d="M36.6995 20.4445L37.7637 26.2586L35.3022 26.7091L35.1806 26.7465C32.9929 27.6977 31.549 28.3591 30.8379 28.7352C29.8933 29.2347 29.5337 29.3803 28.8621 29.5503C28.3599 29.6783 27.7465 29.5882 27.4342 29.3683C27.2617 29.2471 27.0973 28.9632 26.968 28.4999C26.941 28.4027 26.8883 28.3146 26.8156 28.2447C26.7428 28.1749 26.6526 28.1259 26.5544 28.1029C26.3361 28.0522 26.1418 27.94 25.9632 27.7577C25.7984 27.5914 25.6491 27.2527 25.5398 26.7429C25.5198 26.6492 25.4763 26.5621 25.4133 26.4899C25.3503 26.4177 25.2698 26.3627 25.1797 26.3303C24.6568 26.143 24.3663 25.8772 24.2512 25.5238C24.1243 25.1331 24.1718 24.6584 24.4182 24.0827C24.476 23.9477 24.4789 23.7954 24.4262 23.6583C24.3735 23.5212 24.2694 23.4101 24.136 23.3485C23.7683 23.179 23.5313 22.8933 23.404 22.4498C23.2007 21.7431 23.5623 21.127 24.5819 20.8304C25.4905 20.5695 26.4391 20.4764 27.3811 20.5557C27.4878 20.5636 27.5946 20.541 27.6888 20.4903C27.783 20.4397 27.8608 20.3632 27.9131 20.2699C27.9653 20.1765 27.9898 20.0702 27.9837 19.9634C27.9775 19.8566 27.941 19.7538 27.8784 19.667C27.3149 18.8819 26.9593 18.214 26.8059 17.6745C26.6035 16.9585 26.675 16.3997 26.9885 15.8923C27.2263 15.5079 27.6687 15.2321 27.8545 15.2384C28.0993 15.2457 28.2778 15.354 28.5651 15.7951C28.7346 16.0563 28.8355 16.2863 29.0358 16.8298C29.2267 17.3456 29.3219 17.5767 29.486 17.8725C29.9818 18.7691 30.9502 19.6153 32.1322 20.105C32.9604 20.4477 33.8317 20.6752 34.7218 20.7813C34.7774 20.7879 34.8337 20.786 34.8887 20.7759L36.6995 20.4445ZM38.0005 27.3596C38.2642 27.3189 38.4891 27.2173 38.6612 27.043C38.8808 26.8207 38.9485 26.5211 38.8924 26.2006L37.8011 20.2521C37.7707 19.9302 37.6241 19.6565 37.3635 19.4808C37.1192 19.3156 36.8311 19.2693 36.5464 19.3281L34.7714 19.653C34.0115 19.5557 33.2678 19.3581 32.5598 19.0654C31.6076 18.6705 30.836 17.9956 30.466 17.3279C30.3391 17.0975 30.2581 16.9025 30.0878 16.44C29.8583 15.8195 29.7339 15.5342 29.5029 15.1802C29.0238 14.4434 28.5154 14.1335 27.8886 14.113C27.2721 14.0932 26.4712 14.5933 26.0359 15.2976C25.5532 16.0777 25.4392 16.9642 25.7278 17.981C25.8515 18.4185 26.0661 18.8939 26.3708 19.4115C25.6587 19.4374 24.9525 19.5509 24.2682 19.7494C22.6682 20.2143 21.947 21.4437 22.3259 22.7613C22.4902 23.329 22.7898 23.7821 23.217 24.1027C23.023 24.7352 23.0081 25.3282 23.1848 25.8718C23.3884 26.4978 23.8437 26.9669 24.5143 27.2732C24.6637 27.8277 24.8751 28.2533 25.1657 28.5476C25.396 28.7863 25.6737 28.974 25.9811 29.0986C26.1705 29.6382 26.4345 30.0391 26.7918 30.2894C27.3844 30.7065 28.3327 30.8461 29.1382 30.6416C29.9029 30.4479 30.3438 30.2698 31.3618 29.7308C32.0331 29.3754 33.4399 28.7317 35.5682 27.8048L38.0005 27.3596ZM35.3055 20.4385C35.2924 20.3658 35.2651 20.2964 35.2252 20.2342C35.1852 20.1721 35.1334 20.1184 35.0726 20.0763C35.0119 20.0343 34.9434 20.0046 34.8712 19.989C34.799 19.9734 34.7244 19.9723 34.6517 19.9856C34.5792 19.9991 34.5101 20.0267 34.4482 20.0669C34.3864 20.1071 34.3331 20.1591 34.2914 20.2199C34.2497 20.2807 34.2203 20.3492 34.205 20.4213C34.1898 20.4935 34.1888 20.5679 34.2023 20.6404L35.344 26.8778C35.3572 26.9503 35.3845 27.0196 35.4244 27.0816C35.4644 27.1436 35.5161 27.1971 35.5767 27.2391C35.6374 27.2811 35.7057 27.3108 35.7778 27.3264C35.8498 27.342 35.9243 27.3432 35.9968 27.33C36.0694 27.3167 36.1385 27.2891 36.2004 27.249C36.2623 27.2089 36.3157 27.157 36.3575 27.0962C36.3993 27.0355 36.4288 26.9671 36.4441 26.895C36.4595 26.8228 36.4606 26.7484 36.4472 26.6759L35.3055 20.4385Z" fill="url(#paint1_linear_0_17652)"/>
<path fill-rule="evenodd" clip-rule="evenodd" d="M56.7159 51.6653C47.3367 52.4989 38.5461 47.9966 31.2119 42.4342C32.4258 41.019 34.5484 40.4791 35.8018 39.3306C33.7549 37.8347 32.8379 36.3701 31.6952 35.9108C28.0925 36.6075 27.0374 37.4083 21.0433 37.3489C17.8665 37.3173 16.5554 37.4236 13.0928 36.3061C7.30777 34.4405 -0.0725814 28.1925 4.72852 21.3921C6.66676 18.6467 9.58109 15.5261 13.8383 13.5797C17.9807 11.6889 21.9479 10.3827 25.8107 9.03191C33.1843 6.45316 40.3468 5.01755 48.8087 8.18795C56.7371 11.1039 57.4718 17.5908 54.2265 23.1654C51.7031 27.5016 46.4633 31.1727 42.349 32.899C45.2236 35.3879 44.2036 34.7516 47.074 37.2365C44.3654 39.5466 43.0475 40.231 42.3223 42.2007C47.2832 48.152 57.2098 50.8213 56.7239 51.6569L56.7159 51.6653ZM32.1147 33.4576C33.5547 34.8608 35.694 37.2294 38.3616 39.2566C36.6953 40.4511 35.3688 41.2103 34.3957 42.1905C34.3176 43.3209 48.7502 50.2258 50.6291 50.0448C44.9882 47.4186 41.9159 44.6823 39.3371 42.3169C40.3719 40.35 43.4094 37.5068 43.6585 37.3058C40.7778 35.4499 40.1786 34.1919 37.6248 31.4344C40.3881 30.7022 43.7223 29.9794 46.2034 28.2317C54.8522 22.1466 55.5735 10.7459 43.1917 9.46494C39.1584 9.04871 37.0492 9.57268 33.2432 9.84768C28.4116 10.1964 17.0933 14.0373 14.006 16.918C11.5378 19.2147 9.06309 21.1613 8.52258 25.171C8.10728 32.4024 16.3103 35.422 22.7946 35.1786C25.7488 35.0682 28.8454 33.928 32.1164 33.4321L32.1147 33.4576ZM8.74316 32.5975C8.60192 32.1724 8.45822 31.7482 8.31455 31.324L7.94658 30.315C7.82333 29.977 7.68066 29.6461 7.54525 29.3126C6.4709 25.4977 6.93424 21.4803 11.0372 17.7361C7.5124 18.2612 4.58384 23.0426 5.12525 27.2998C5.25322 28.4084 5.64824 29.4695 6.27636 30.392C6.90449 31.3145 7.747 32.0708 8.73165 32.5962L8.74316 32.5975Z" fill="url(#paint2_linear_0_17652)"/>
<path d="M297.238 234.426L302.007 47.5867L15.7597 47.6633L21.5639 234.426L297.238 234.426Z" fill="#181818" stroke="url(#paint3_linear_0_17652)" stroke-width="2"/>
<path d="M298.813 241.602L24.4996 232.908L13.9615 55.7481L306.679 39.0597L298.813 241.602Z" stroke="white" stroke-width="2"/>
<path d="M306.965 250.571L306.155 229.662L305.224 246.369L287.346 245.644L306.965 250.571Z" fill="#FF9424"/>
<defs>
<linearGradient id="paint0_linear_0_17652" x1="320.697" y1="107.647" x2="332.883" y2="110.19" gradientUnits="userSpaceOnUse">
<stop stop-color="#FF8200"/>
<stop offset="1" stop-color="#FFF02E"/>
</linearGradient>
<linearGradient id="paint1_linear_0_17652" x1="28.6746" y1="13.9414" x2="31.6484" y2="30.1888" gradientUnits="userSpaceOnUse">
<stop stop-color="#FF9323"/>
<stop offset="1" stop-color="#FFF02E"/>
</linearGradient>
<linearGradient id="paint2_linear_0_17652" x1="16.3116" y1="12.4222" x2="33.685" y2="60.064" gradientUnits="userSpaceOnUse">
<stop stop-color="#FF9323"/>
<stop offset="1" stop-color="#FFF02E"/>
</linearGradient>
<linearGradient id="paint3_linear_0_17652" x1="158.086" y1="137.443" x2="158.029" y2="228.695" gradientUnits="userSpaceOnUse">
<stop stop-color="#FF9323"/>
<stop offset="1" stop-color="#FFF02E"/>
</linearGradient>
</defs>
</svg>
